<svg width="24" height="24" viewBox="0 0 24 24" fill="none" xmlns="http://www.w3.org/2000/svg">
<path d="M21.4059 12.1257C21.4059 12.3859 21.3935 12.6461 21.375 12.9063C21.3626 13.0364 21.3502 13.1603 21.3378 13.2904C21.3316 13.3399 21.3068 13.5258 21.3316 13.3399C21.3192 13.4081 21.313 13.4824 21.3006 13.5506C21.2139 14.0586 21.0962 14.5666 20.9351 15.056C20.8608 15.2914 20.774 15.5268 20.6811 15.756C20.7493 15.5887 20.6377 15.8551 20.613 15.9109C20.5572 16.0348 20.4953 16.1587 20.4333 16.2826C20.2041 16.7286 19.9439 17.1623 19.6527 17.5774C19.5846 17.6765 19.5102 17.7756 19.4359 17.8747C19.5474 17.7322 19.3368 17.9924 19.2996 18.0358C19.1323 18.234 18.9651 18.4261 18.7854 18.6119C18.6181 18.7854 18.4385 18.9527 18.2588 19.1199C18.1783 19.1943 18.0978 19.2624 18.011 19.3306C17.9677 19.3677 17.6703 19.6031 17.819 19.4916C17.4225 19.7952 16.995 20.074 16.5552 20.3156C16.3384 20.4333 16.1215 20.5448 15.8985 20.6501C15.8613 20.6687 15.5268 20.8112 15.7065 20.7368C15.5764 20.7864 15.4525 20.836 15.3224 20.8855C14.8515 21.059 14.3683 21.1891 13.8789 21.2882C13.7426 21.3192 13.6001 21.344 13.4638 21.3626C13.4081 21.3687 13.3523 21.3811 13.2966 21.3873C13.47 21.3626 13.3276 21.3811 13.2904 21.3873C13.0054 21.4183 12.7204 21.4431 12.4293 21.4493C11.9089 21.4679 11.3885 21.4431 10.8743 21.3873C10.6885 21.3687 10.8309 21.3811 10.8681 21.3873C10.8 21.3749 10.7256 21.3687 10.6575 21.3564C10.5336 21.3378 10.4097 21.313 10.2858 21.2882C10.038 21.2386 9.79636 21.1767 9.55475 21.1086C9.31314 21.0404 9.07773 20.9661 8.84232 20.8793C8.72461 20.836 8.6131 20.7926 8.49539 20.7492C8.34671 20.6873 8.69364 20.8422 8.45203 20.7307C8.37769 20.6997 8.30335 20.6625 8.22901 20.6315C7.78296 20.4271 7.3555 20.1855 6.94663 19.9129C6.74219 19.7766 6.54395 19.6403 6.3519 19.4916C6.49439 19.6031 6.26517 19.4235 6.2218 19.3863C6.11649 19.2996 6.01736 19.2129 5.91205 19.1199C5.52795 18.7792 5.17483 18.4075 4.8465 18.011C4.80932 17.9676 4.62967 17.7384 4.74118 17.8809C4.66684 17.7818 4.5925 17.6827 4.52435 17.5836C4.37567 17.3729 4.23318 17.1561 4.10309 16.9331C3.97918 16.7224 3.85528 16.5056 3.74997 16.2888C3.70041 16.1897 3.65085 16.0905 3.60748 15.9914C3.5765 15.9295 3.55172 15.8675 3.52075 15.8056C3.50216 15.7684 3.48977 15.7312 3.47119 15.6941C3.50836 15.7746 3.50836 15.787 3.48358 15.725C3.29153 15.248 3.13665 14.7586 3.01895 14.263C2.96319 14.0276 2.91983 13.7984 2.87646 13.563C2.86407 13.4948 2.85168 13.4205 2.84549 13.3523C2.85168 13.3895 2.86407 13.532 2.84549 13.3461C2.8269 13.2036 2.81451 13.0612 2.80212 12.9187C2.76495 12.3859 2.76495 11.8469 2.80831 11.3141C2.82071 11.184 2.8331 11.0601 2.84549 10.93C2.85168 10.8929 2.87027 10.7442 2.84549 10.9238C2.85168 10.8681 2.86407 10.8123 2.87027 10.7566C2.91363 10.4778 2.96939 10.2052 3.03753 9.93264C3.15524 9.44942 3.31631 8.9724 3.50216 8.51396C3.43402 8.68743 3.56411 8.37148 3.58889 8.32192C3.63846 8.21041 3.69421 8.09889 3.74997 7.98738C3.86767 7.75817 3.99157 7.52895 4.12787 7.30593C4.24557 7.10768 4.37567 6.91563 4.50577 6.72359C4.5863 6.61208 4.66064 6.50056 4.74737 6.39525C4.72259 6.42622 4.64206 6.52535 4.75357 6.38905C4.80313 6.3271 4.85889 6.26515 4.90845 6.2032C5.22439 5.8315 5.55893 5.47838 5.92444 5.15623C6.01736 5.0757 6.11029 4.99516 6.20322 4.91463C6.24658 4.88365 6.50677 4.67302 6.36429 4.77833C6.56873 4.62346 6.77936 4.47478 6.99619 4.33229C7.41745 4.05971 7.8635 3.8119 8.32193 3.60127C8.37769 3.57649 8.64408 3.46498 8.47681 3.53312C8.59452 3.48976 8.70603 3.4402 8.82373 3.39683C9.07154 3.30391 9.31934 3.22337 9.57334 3.15522C9.81495 3.08708 10.0627 3.02513 10.3044 2.97557C10.4159 2.95079 10.5274 2.9322 10.6389 2.91362C10.707 2.90123 10.7814 2.88884 10.8495 2.88264C10.9177 2.87025 10.9053 2.87645 10.8124 2.88884C10.8557 2.88264 10.8991 2.87645 10.9424 2.87645C11.4752 2.81449 12.008 2.79591 12.5408 2.82069C12.7824 2.83308 13.0302 2.85167 13.2718 2.87645C13.3214 2.88264 13.5072 2.90742 13.3214 2.88264C13.3771 2.88884 13.4329 2.90123 13.4886 2.90742C13.6249 2.9322 13.7674 2.95698 13.9037 2.98176C14.4055 3.08708 14.9073 3.22337 15.3905 3.40303C15.5082 3.44639 15.6197 3.48976 15.7374 3.53932C15.5702 3.47117 15.8428 3.58268 15.8923 3.60746C16.1401 3.71898 16.3817 3.84288 16.6233 3.97917C17.0508 4.21458 17.4597 4.48716 17.85 4.78453C17.6951 4.66682 17.9801 4.88985 18.011 4.92082C18.104 5.00136 18.1969 5.0757 18.2898 5.16243C18.4819 5.33589 18.6677 5.50935 18.8412 5.69521C19.0022 5.86247 19.1571 6.02974 19.2996 6.2094C19.343 6.25896 19.3863 6.31471 19.4297 6.36427C19.4607 6.40144 19.566 6.54393 19.4607 6.40144C19.5412 6.50676 19.6218 6.61827 19.7023 6.72978C19.9811 7.13246 20.2351 7.55373 20.4581 7.98738C20.5138 8.09889 20.5696 8.21041 20.6192 8.32192C20.6439 8.37148 20.774 8.68743 20.7059 8.51396C20.805 8.75557 20.8917 9.00338 20.9723 9.25118C21.1334 9.74678 21.2511 10.2486 21.3316 10.7566C21.3378 10.8123 21.3502 10.8681 21.3564 10.9238C21.3316 10.7504 21.3502 10.8929 21.3564 10.93C21.3688 11.0725 21.3873 11.215 21.3997 11.3575C21.3935 11.6053 21.3997 11.8655 21.4059 12.1257C21.4059 12.6089 21.8334 13.0797 22.3352 13.055C22.837 13.0302 23.2645 12.6461 23.2645 12.1257C23.2521 9.84591 22.5644 7.56612 21.2387 5.7076C19.9005 3.83668 18.0606 2.41801 15.9047 1.61885C11.5682 0.0081259 6.43863 1.39582 3.50216 4.97038C2.01535 6.77934 1.12945 8.9662 0.943597 11.3017C0.76394 13.5877 1.32769 15.9357 2.51095 17.8933C3.66324 19.7952 5.40405 21.3749 7.44223 22.2856C9.6229 23.2644 12.0328 23.537 14.3807 23.06C18.8226 22.1617 22.4405 18.4013 23.1158 13.9099C23.2087 13.3151 23.2645 12.7204 23.2645 12.1195C23.2645 11.6363 22.837 11.1655 22.3352 11.1902C21.8272 11.215 21.4059 11.6053 21.4059 12.1257Z" fill="#E5C300"/>
</svg>
