<svg width="26" height="24" viewBox="0 0 26 24" fill="none" xmlns="http://www.w3.org/2000/svg">
<path d="M12.5501 15.8273C12.3993 15.8273 12.2556 15.7632 12.1543 15.6512C11.922 15.3945 6.46593 9.3173 6.46593 6.08341C6.46593 2.7292 9.19539 0 12.5501 0C15.9051 0 18.6346 2.7292 18.6346 6.08341C18.6346 9.3173 13.1783 15.3945 12.946 15.6512C12.8447 15.7632 12.7009 15.8273 12.5501 15.8273ZM12.5501 1.06668C9.78342 1.06668 7.53261 3.31723 7.53261 6.08341C7.53261 8.24593 10.8509 12.5252 12.5501 14.4882C14.2494 12.5246 17.5679 8.24437 17.5679 6.08341C17.5679 3.31723 15.3168 1.06668 12.5501 1.06668Z" fill="#E5C300"/>
<path d="M0.533309 24.0003C0.401797 24.0003 0.272108 23.9513 0.171847 23.8591C0.0205426 23.7196 -0.0370102 23.5055 0.023928 23.3091L3.80601 11.1105C3.85132 10.9637 3.95783 10.8439 4.09794 10.7814L8.06283 9.01208C8.33288 8.89125 8.64747 9.01312 8.76726 9.28188C8.88732 9.55063 8.76648 9.86626 8.49773 9.98605L4.75315 11.6569L1.37473 22.5539L6.40213 20.5325C6.52739 20.4825 6.66802 20.4815 6.79432 20.5299L12.8759 22.8925L18.4468 20.595C18.571 20.545 18.7098 20.5414 18.8356 20.5883L24.2948 22.6117L21.57 12.0809L18.7135 11.422C18.4262 11.3559 18.2473 11.0694 18.3135 10.7824C18.3799 10.4949 18.6663 10.3173 18.9531 10.3824L22.125 11.1142C22.319 11.159 22.4716 11.3079 22.5216 11.5001L25.5834 23.3331C25.6331 23.5258 25.5719 23.7294 25.4245 23.8628C25.2774 23.9961 25.0685 24.0367 24.8815 23.9669L18.6606 21.6607L13.0853 23.9602C12.9585 24.0117 12.8165 24.0138 12.6887 23.9643L6.60448 21.6008L0.73227 23.9617C0.667946 23.9878 0.600237 24.0003 0.533309 24.0003Z" fill="#E5C300"/>
<path d="M18.6497 21.6216C18.4007 21.6216 18.1781 21.4466 18.1273 21.193L16.0186 10.6553C15.9608 10.3663 16.1481 10.0855 16.4369 10.0277C16.7262 9.96887 17.0064 10.1569 17.0645 10.446L19.1731 20.9836C19.2309 21.2727 19.0437 21.5534 18.7549 21.6112C18.7195 21.6185 18.6843 21.6216 18.6497 21.6216Z" fill="#E5C300"/>
<path d="M12.8819 24.0003C12.5874 24.0003 12.3486 23.7617 12.3486 23.467L12.3483 17.1382C12.3483 16.8434 12.5871 16.6049 12.8816 16.6049C13.1762 16.6049 13.415 16.8434 13.415 17.1382L13.4152 23.467C13.4152 23.7612 13.1764 24.0003 12.8819 24.0003Z" fill="#E5C300"/>
<path d="M6.60135 21.5607C6.55421 21.5607 6.50629 21.5544 6.45864 21.5414C6.17478 21.4628 6.00837 21.169 6.08702 20.8851L8.70762 11.4272C8.78653 11.1434 9.07976 10.9783 9.36414 11.0553C9.648 11.134 9.81441 11.4277 9.73576 11.7116L7.11516 21.1695C7.04953 21.406 6.8352 21.5607 6.60135 21.5607Z" fill="#E5C300"/>
</svg>
