<svg width="38" height="38" viewBox="0 0 38 38" fill="none" xmlns="http://www.w3.org/2000/svg">
<path fill-rule="evenodd" clip-rule="evenodd" d="M0 12.8C0 8.31958 0 6.07937 0.871948 4.36808C1.63893 2.86278 2.86278 1.63893 4.36808 0.871948C6.07937 0 8.31958 0 12.8 0L25.2 0C29.6804 0 31.9206 0 33.6319 0.871948C35.1372 1.63893 36.3611 2.86278 37.1281 4.36808C38 6.07937 38 8.31958 38 12.8V25.2C38 29.6804 38 31.9206 37.1281 33.6319C36.3611 35.1372 35.1372 36.3611 33.6319 37.1281C31.9206 38 29.6804 38 25.2 38H12.8C8.31958 38 6.07937 38 4.36808 37.1281C2.86278 36.3611 1.63893 35.1372 0.871948 33.6319C0 31.9206 0 29.6804 0 25.2L0 12.8Z" fill="url(#paint0_radial)"/>
<mask id="mask0" mask-type="alpha" maskUnits="userSpaceOnUse" x="0" y="0" width="38" height="38">
<path fill-rule="evenodd" clip-rule="evenodd" d="M0 12.8C0 8.31958 0 6.07937 0.871948 4.36808C1.63893 2.86278 2.86278 1.63893 4.36808 0.871948C6.07937 0 8.31958 0 12.8 0L25.2 0C29.6804 0 31.9206 0 33.6319 0.871948C35.1372 1.63893 36.3611 2.86278 37.1281 4.36808C38 6.07937 38 8.31958 38 12.8V25.2C38 29.6804 38 31.9206 37.1281 33.6319C36.3611 35.1372 35.1372 36.3611 33.6319 37.1281C31.9206 38 29.6804 38 25.2 38H12.8C8.31958 38 6.07937 38 4.36808 37.1281C2.86278 36.3611 1.63893 35.1372 0.871948 33.6319C0 31.9206 0 29.6804 0 25.2L0 12.8Z" fill="url(#paint1_radial)"/>
</mask>
<g mask="url(#mask0)">
<path d="M32.9531 19C32.9531 22.8883 31.3627 26.4051 28.7969 28.9353C19 38.7322 28.7969 40.1523 19 40.0781C9.20312 40.0039 19 38.7322 9.20312 28.9353C6.63731 26.4051 5.04688 22.8883 5.04688 19C5.04688 11.2939 11.2939 5.04688 19 5.04688C26.7061 5.04688 32.9531 11.2939 32.9531 19Z" fill="white"/>
<path fill-rule="evenodd" clip-rule="evenodd" d="M24.0747 36.2188C23.8984 37.0371 23.8984 37.69 23.8984 38.2084C23.8984 39.7788 23.8984 40.1152 19 40.0781C14.1015 40.041 14.1015 39.7045 14.1015 38.1527C14.1015 37.6475 14.1015 37.0133 13.9325 36.2188H24.0747Z" fill="#005487"/>
</g>
<circle cx="19" cy="19" r="13.9531" fill="white"/>
<path fill-rule="evenodd" clip-rule="evenodd" d="M17.1437 8.95202L21.275 9.10672L18.2706 11.8989L13.8304 11.2402L17.1437 8.95202ZM20.1342 10.6022C20.4533 11.1126 20.5774 11.745 20.4312 12.378C20.1392 13.6412 18.88 14.4281 17.619 14.1355C16.5394 13.8849 15.8086 12.9247 15.8037 11.8611L18.3702 12.242L20.1342 10.6022ZM17.8637 6.76239C12.4053 7.31288 8.14949 11.3822 7.11183 16.4984C7.19437 16.4888 7.27859 16.5266 7.39093 16.5397C15.1397 17.4278 23.2815 17.4377 23.9067 8.63018C23.912 8.25472 24.0133 7.9726 24.1531 7.80041C22.2491 6.92952 20.0963 6.5371 17.8637 6.76239ZM16.8293 30.9689C11.6381 29.9933 7.48731 25.6961 6.93115 20.1654C6.82095 19.0697 6.85942 17.9935 7.02894 16.956C7.97121 17.6228 12.7921 18.5372 14.6416 19.5607C18.3281 21.6003 18.2224 25.9431 16.8293 30.9689Z" fill="#005487"/>
<path fill-rule="evenodd" clip-rule="evenodd" d="M24.8934 8.26892C28.2797 10.1556 30.7215 13.6269 31.1388 17.7966C31.8147 24.5509 26.9229 30.5778 20.2125 31.2581C19.7087 31.3092 19.2089 31.3282 18.715 31.3175C22.3128 24.4666 24.6425 16.7011 24.913 9.11748C24.9485 8.7699 24.9367 8.48886 24.8934 8.26892Z" fill="#36BFC7"/>
<defs>
<radialGradient id="paint0_radial" cx="0" cy="0" r="1" gradientUnits="userSpaceOnUse" gradientTransform="translate(19 19) rotate(90) scale(19)">
<stop offset="0.334862" stop-color="white"/>
<stop offset="1" stop-color="#FFA900"/>
</radialGradient>
<radialGradient id="paint1_radial" cx="0" cy="0" r="1" gradientUnits="userSpaceOnUse" gradientTransform="translate(19 19) rotate(90) scale(19)">
<stop offset="0.334862" stop-color="white"/>
<stop offset="1" stop-color="#FFA900"/>
</radialGradient>
</defs>
</svg>
