<svg width="112" height="29" viewBox="0 0 112 29" fill="none" xmlns="http://www.w3.org/2000/svg">
<path fill-rule="evenodd" clip-rule="evenodd" d="M11.992 2.62852L16.8138 2.80907L13.3073 6.06786L8.12493 5.29913L11.992 2.62852ZM15.4823 4.55453C15.8547 5.15018 15.9996 5.88823 15.829 6.62711C15.4881 8.10135 14.0184 9.01985 12.5468 8.67824C11.2868 8.38586 10.4338 7.26515 10.428 6.0238L13.4235 6.46833L15.4823 4.55453ZM12.8323 0.0729438C6.46165 0.715436 1.49456 5.46484 0.28347 11.4361C0.379807 11.4249 0.47811 11.4691 0.609215 11.4843C9.65297 12.5209 19.1555 12.5324 19.8853 2.2529C19.8915 1.81469 20.0096 1.48541 20.1728 1.28444C17.9506 0.268003 15.438 -0.190002 12.8323 0.0729438ZM11.625 28.325C5.56616 27.1863 0.721695 22.171 0.0725854 15.7159C-0.0560361 14.4371 -0.0111272 13.1811 0.18672 11.9702C1.28647 12.7484 6.91301 13.8156 9.07164 15.0102C13.3743 17.3906 13.251 22.4592 11.625 28.325Z" fill="#005487"/>
<path fill-rule="evenodd" clip-rule="evenodd" d="M21.0366 1.83124C24.9889 4.03319 27.8388 8.08472 28.3258 12.9512C29.1146 20.8343 23.4053 27.8685 15.5734 28.6626C14.9854 28.7222 14.4021 28.7443 13.8256 28.7318C18.0247 20.736 20.7438 11.6726 21.0595 2.82161C21.1009 2.41595 21.0872 2.08794 21.0366 1.83124Z" fill="#36BFC7"/>
<path fill-rule="evenodd" clip-rule="evenodd" d="M45.3904 17.1312C45.2986 17.1447 45.1609 17.1515 44.9774 17.1515C43.981 17.0974 42.7093 17.0706 41.1623 17.0706C40.0345 17.0706 38.5201 17.0778 36.6193 17.0909V17.0706C36.9602 17.0171 37.2256 16.8386 37.416 16.5355C37.6057 16.2324 37.701 15.8117 37.701 15.2732L37.7207 6.06271H37.701V6.04235C37.701 5.50398 37.6057 5.08296 37.416 4.78002C37.2256 4.47709 36.9602 4.29875 36.6193 4.24501V4.22475L40.2182 4.20439C41.1885 4.20439 42.0864 4.19127 42.9127 4.16408H43.0502C43.627 4.15064 44.1643 4.12356 44.6627 4.08325C45.0824 4.05638 45.2922 4.08325 45.2922 4.16408V4.48738L45.3119 6.24441H45.2922C45.2657 6.06954 45.2004 5.91461 45.0955 5.78004C44.9905 5.64547 44.8202 5.52738 44.5842 5.42651C44.3484 5.32532 44.0336 5.24471 43.6401 5.18414C43.2469 5.12347 42.7421 5.07981 42.1261 5.05262C41.5753 5.0395 40.8147 5.03268 39.8447 5.03268C39.6349 5.03268 39.4972 5.06637 39.4318 5.13355C39.4053 5.17375 39.3923 5.27504 39.3923 5.43648V9.55684C39.3923 9.7187 39.4838 9.79921 39.6677 9.79921C40.0084 9.79921 41.2475 9.80645 43.3847 9.81957C43.9089 9.81957 44.2894 9.69529 44.5253 9.44599C44.7613 9.1968 44.9054 8.89723 44.9577 8.54717H44.9774C44.9644 9.07221 44.9708 10.1562 44.9972 11.799H44.9774C44.9249 11.4489 44.7512 11.1763 44.4563 10.981C44.1613 10.7858 43.7514 10.6881 43.2271 10.6881C42.4012 10.6343 41.1819 10.6141 39.5692 10.6275C39.4513 10.6275 39.3923 10.6746 39.3923 10.769V15.0712C39.3923 15.677 39.7395 16.054 40.4347 16.202C40.6049 16.2291 41.2016 16.2426 42.2243 16.2426C42.6962 16.2426 43.1158 16.1954 43.4828 16.1012C44.2696 15.8723 44.8498 15.6199 45.2235 15.3439C45.597 15.068 45.8359 14.7547 45.9412 14.4046L45.9609 14.4247L45.5674 17.0302L45.548 17.1515L45.3904 17.1312Z" fill="#0A4875"/>
<path fill-rule="evenodd" clip-rule="evenodd" d="M51.4653 14.693C51.4653 15.3417 51.6336 15.7743 51.9697 15.9901C52.3063 16.2066 52.9756 16.3145 53.9783 16.3145C57.7505 16.3145 59.637 14.423 59.637 10.6398C59.637 6.81624 57.7178 4.90428 53.8792 4.90428H52.5339C51.8214 4.97201 51.4653 5.17476 51.4653 5.51221V14.693ZM48.5766 17.1047C48.9196 17.0512 49.1866 16.872 49.3779 16.568C49.5691 16.2637 49.6648 15.8416 49.6648 15.3013L49.7043 6.01905H49.6847V5.99862C49.6847 5.4583 49.589 5.03595 49.3978 4.73188C49.2066 4.42802 48.9391 4.24897 48.5965 4.19483V4.1744C50.8255 4.1071 52.6921 4.07318 54.1959 4.07318C56.4249 4.07318 58.2122 4.62034 59.5577 5.71498C60.9558 6.84974 61.6549 8.4038 61.6549 10.3762C61.6549 12.6733 60.9161 14.4163 59.4389 15.6054C58.054 16.6997 56.2799 17.213 54.1166 17.1456C53.6151 17.1456 51.7688 17.1383 48.5766 17.1253V17.1047Z" fill="#0A4875"/>
<path fill-rule="evenodd" clip-rule="evenodd" d="M74.8882 4.6404C74.6984 4.34184 74.434 4.16608 74.0938 4.1128V4.09284H77.3488V4.1128C77.0087 4.16608 76.7443 4.34184 76.5545 4.6404C76.3653 4.93896 76.2706 5.3539 76.2706 5.8846L76.2901 11.5381C76.3943 13.3166 75.9894 14.69 75.0743 15.6586C74.1332 16.654 72.7734 17.1515 70.9958 17.1515C67.2311 17.1515 65.3489 15.3536 65.3489 11.7569L65.3683 5.8846H65.3489V5.86453C65.3489 5.33393 65.2537 4.91899 65.0645 4.62043C64.8747 4.32177 64.61 4.14611 64.2705 4.09284V4.07318H68.1722V4.09284C67.8324 4.14611 67.5677 4.34184 67.3782 4.68012C67.1886 5.01872 67.0808 5.5728 67.0547 6.34226V11.4186C67.0547 13.0777 67.3913 14.2919 68.0646 15.0615C68.7377 15.8312 69.8257 16.2161 71.3293 16.2161C73.9043 16.2161 75.1919 14.71 75.1919 11.6972L75.1726 5.8846C75.1726 5.3539 75.0773 4.93896 74.8882 4.6404Z" fill="#0A4875"/>
<path fill-rule="evenodd" clip-rule="evenodd" d="M87.3482 7.09071V7.0708C87.3482 6.66074 87.2895 6.29999 87.1721 5.98876C87.0546 5.67815 86.9045 5.46976 86.7216 5.36351V5.324C86.3039 4.94024 85.632 4.74816 84.7057 4.74816C83.9616 4.74816 83.5633 4.86081 83.5112 5.0858C83.4985 5.13893 83.4919 5.20485 83.4919 5.28408L83.4331 10.1278H84.2159C84.6469 10.1278 85.0386 10.0815 85.3909 9.98888C85.4037 9.98888 85.4133 9.98579 85.42 9.97877C85.4267 9.97227 85.4363 9.96887 85.4498 9.96887C85.9322 9.83693 86.3172 9.60523 86.6042 9.27429C87.1133 8.69196 87.3682 7.98387 87.3682 7.15024L87.3482 7.09071ZM84.5488 16.7778L82.8458 16.7578H82.4148L80.7118 16.7778V16.7578C81.3124 16.6783 81.6647 16.2155 81.7688 15.3683V15.2888C81.7822 15.2228 81.7888 15.1236 81.7888 14.991L81.8082 5.91943H81.7888V5.89952C81.7888 5.37031 81.6938 4.95654 81.5049 4.65882C81.3153 4.3611 81.0514 4.18583 80.7118 4.13301V4.1131L85.6059 4.07318C86.6763 4.1131 87.5243 4.3381 88.151 4.74816C88.9211 5.25116 89.3061 5.99897 89.3061 6.99126C89.3061 8.30159 88.4967 9.42655 86.8784 10.366C86.8263 10.4188 86.758 10.4652 86.6732 10.5048C86.5879 10.5447 86.5001 10.5812 86.4087 10.614C86.3172 10.6472 86.2325 10.6771 86.1544 10.7035C86.0756 10.7301 86.0169 10.7501 85.9782 10.763C85.8995 10.7896 85.782 10.816 85.6259 10.8424C85.4691 10.8691 85.1815 10.8952 84.7645 10.9216C84.1899 10.9088 83.7461 10.9352 83.4331 11.0012L83.4918 14.991C83.4918 15.5205 83.5862 15.934 83.7758 16.2317C83.9646 16.5295 84.2292 16.705 84.5682 16.7578V16.7778H84.5488Z" fill="#0A4875"/>
<path fill-rule="evenodd" clip-rule="evenodd" d="M96.0321 4.12487C95.6752 4.15192 95.3778 4.26251 95.1399 4.45644C94.902 4.65099 94.6904 4.89546 94.5054 5.19006V15.2978C94.5054 15.6729 94.6046 15.988 94.8026 16.242C94.9345 16.4432 95.1 16.614 95.2981 16.7548C95.4968 16.8952 95.7279 16.9928 95.9922 17.0459C96.0186 17.0729 96.0254 17.0932 96.0125 17.1062C95.9591 17.1466 95.7941 17.1597 95.5164 17.1466C93.8112 17.0795 92.496 17.0795 91.5706 17.1466C91.3725 17.1597 91.2401 17.1329 91.1745 17.0661C91.6234 17.026 92.0035 16.862 92.3144 16.5739C92.6247 16.2859 92.7932 15.9479 92.8196 15.5591V5.81309C92.8196 5.54523 92.7669 5.31057 92.6614 5.10955C92.5554 4.84168 92.4137 4.61058 92.2353 4.41634C92.0563 4.2222 91.8612 4.12487 91.6504 4.12487C91.7558 4.09814 92.5027 4.08164 93.8909 4.07454C95.2786 4.06806 95.9922 4.08477 96.0321 4.12487Z" fill="#0A4875"/>
<path fill-rule="evenodd" clip-rule="evenodd" d="M106.505 12.3803C106.464 12.2881 105.646 10.3138 104.05 6.45783L101.517 12.539H106.584L106.505 12.3803ZM99.9608 16.758H97.5465L97.5268 16.7379C97.8327 16.6856 98.0721 16.5371 98.2449 16.2923C98.4177 16.0482 98.604 15.8008 98.8033 15.5497C99.0026 15.312 99.4586 14.4241 100.17 12.8857C100.881 11.3472 101.424 10.149 101.796 9.29054C102.767 6.9268 103.605 4.81403 104.31 2.95221C106.092 7.16438 107.854 11.1791 109.597 14.995C109.796 15.5234 110.049 15.9327 110.355 16.2232C110.661 16.5138 110.993 16.6856 111.352 16.7379V16.758L108.26 16.7778C107.688 15.2857 107.236 14.1303 106.903 13.3113H101.218L99.9608 16.758Z" fill="#0A4875"/>
<path fill-rule="evenodd" clip-rule="evenodd" d="M110.212 2.2207C111.199 2.2207 112 3.04381 112 4.05914C112 5.07437 111.199 5.89747 110.212 5.89747C109.224 5.89747 108.423 5.07437 108.423 4.05914C108.423 3.0436 109.224 2.2207 110.212 2.2207ZM110.223 4.27285H109.886V4.98665H109.574V3.1315H110.185C110.352 3.1315 110.529 3.1641 110.66 3.27817C110.786 3.38757 110.831 3.54212 110.831 3.70757C110.831 3.82196 110.802 3.92866 110.737 4.02156C110.68 4.10127 110.606 4.15992 110.52 4.20081L110.907 4.91752V4.98665H110.596L110.223 4.27285ZM109.886 3.99456V3.40977H110.191C110.278 3.40977 110.372 3.42628 110.438 3.48741C110.499 3.54419 110.519 3.62411 110.519 3.70704C110.519 3.78956 110.494 3.86025 110.433 3.91536C110.366 3.97557 110.279 3.99456 110.193 3.99456H109.886ZM110.212 2.55915C109.405 2.55915 108.752 3.23061 108.752 4.05911C108.752 4.88761 109.405 5.55896 110.212 5.55896C111.017 5.55896 111.671 4.8874 111.671 4.05911C111.671 3.23061 111.017 2.55915 110.212 2.55915Z" fill="#005487"/>
<path fill-rule="evenodd" clip-rule="evenodd" d="M43.7184 21.3295L43.132 22.1774H43.4105L44.0825 21.3295H43.7184ZM41.82 22.6245L42.4259 21.9232H42.6556L43.2591 22.6245H42.9463L42.5456 22.1505H42.5358L42.1327 22.6245H41.82ZM40.4307 21.9868C40.2817 21.9868 40.1619 22.1016 40.1619 22.2604C40.1619 22.4119 40.2817 22.5292 40.4307 22.5292C40.5871 22.5292 40.7044 22.4119 40.7044 22.2604C40.7044 22.1016 40.5871 21.9868 40.4307 21.9868ZM38.6017 25.6077H38.2425V22.6H37.2065V22.2751H39.6376V22.6H38.6017V25.6077ZM40.2572 25.6077V23.0496H40.6091V25.6077H40.2572ZM42.5798 25.6493C41.9055 25.6493 41.5146 25.2119 41.5146 24.5303V24.1344C41.5146 23.4405 41.9446 23.0081 42.5481 23.0081C43.1516 23.0081 43.5816 23.4405 43.5816 24.1344V24.4203H41.8688V24.5547C41.8688 25.0018 42.1156 25.3365 42.5774 25.3365C42.9146 25.3365 43.1247 25.168 43.1711 24.9994H43.5449C43.5058 25.2632 43.2029 25.6493 42.5798 25.6493ZM43.2273 24.1027V24.1442H41.8688V24.1027C41.8688 23.6262 42.14 23.3233 42.5481 23.3233C42.9561 23.3233 43.2273 23.6262 43.2273 24.1027ZM44.4089 25.6077V23.0496H44.7607V23.5261H44.7803C44.8462 23.3135 45.0295 23.0081 45.567 23.0081C46.0825 23.0081 46.4417 23.2915 46.4417 23.8608V25.6077H46.0874V23.9732C46.0874 23.5603 45.8724 23.3233 45.4888 23.3233C44.9953 23.3233 44.7607 23.7044 44.7607 24.1662V25.6077H44.4089ZM49.0062 25.5442C49.0062 25.9669 48.7643 26.2235 48.2854 26.2235C47.9116 26.2235 47.6941 26.0427 47.6624 25.8521H47.2934C47.3301 26.2088 47.6428 26.5362 48.2708 26.5362C48.928 26.5362 49.3605 26.2112 49.3605 25.532V23.0496H49.0233V23.4503H49.0086C48.9256 23.25 48.6544 23.0081 48.2488 23.0081C47.6892 23.0081 47.2348 23.4063 47.2348 24.0734V24.496C47.2348 25.1557 47.6844 25.5564 48.2512 25.5564C48.6348 25.5564 48.8938 25.3439 48.9866 25.1337H49.0062V25.5442ZM48.3147 23.3233C47.8774 23.3233 47.5891 23.6507 47.5891 24.1564V24.413C47.5891 24.9114 47.8945 25.2413 48.3196 25.2413C48.7667 25.2413 49.0062 24.8723 49.0062 24.4887V24.088C49.0062 23.6898 48.7496 23.3233 48.3147 23.3233ZM51.1665 25.6077H51.5428L51.8971 24.5669H53.1798L53.5341 25.6077H53.9104L52.7132 22.2751H52.3638L51.1665 25.6077ZM52.5446 22.7173H52.5299L51.9973 24.2712H53.0772L52.5446 22.7173ZM54.5862 23.0496V25.6077H54.938V24.1662C54.938 23.7044 55.1726 23.3233 55.6661 23.3233C56.0497 23.3233 56.2647 23.5603 56.2647 23.9732V25.6077H56.619V23.8608C56.619 23.2915 56.2598 23.0081 55.7443 23.0081C55.2068 23.0081 55.0235 23.3135 54.9576 23.5261H54.938V23.0496H54.5862ZM57.5782 25.6077V22.0967H57.9301V23.5261H57.9496C58.0034 23.3379 58.2184 23.0081 58.7559 23.0081C59.2519 23.0081 59.6208 23.2939 59.6208 23.8657V25.6077H59.2666V23.9781C59.2666 23.5651 59.0369 23.3233 58.6533 23.3233C58.1744 23.3233 57.9301 23.702 57.9301 24.1662V25.6077H57.5782ZM63.8067 24.1271C63.8067 23.4112 63.3376 23.0081 62.7292 23.0081C62.1135 23.0081 61.6493 23.4332 61.6493 24.1271V24.5303C61.6493 25.2535 62.1062 25.6493 62.7292 25.6493C63.34 25.6493 63.8067 25.2461 63.8067 24.5303V24.1271ZM62.7316 23.3233C62.2943 23.3233 62.0011 23.6556 62.0011 24.1686V24.4936C62.0011 25.0165 62.2796 25.3365 62.7316 25.3365C63.1788 25.3365 63.4524 25.0189 63.4524 24.4936V24.1686C63.4524 23.6556 63.1666 23.3233 62.7316 23.3233ZM64.6487 23.0496V25.6077H65.0005V24.1662C65.0005 23.7044 65.235 23.3233 65.7286 23.3233C66.1122 23.3233 66.3272 23.5603 66.3272 23.9732V25.6077H66.6815V23.8608C66.6815 23.2915 66.3223 23.0081 65.8068 23.0081C65.2693 23.0081 65.086 23.3135 65.02 23.5261H65.0005V23.0496H64.6487ZM67.6505 25.6077V22.0967H68.0048V25.6077H67.6505ZM69.052 23.0496V25.6077H69.4038V23.0496H69.052ZM68.9567 22.2604C68.9567 22.1016 69.0764 21.9868 69.2254 21.9868C69.3818 21.9868 69.4991 22.1016 69.4991 22.2604C69.4991 22.4119 69.3818 22.5292 69.2254 22.5292C69.0764 22.5292 68.9567 22.4119 68.9567 22.2604ZM70.4339 23.0496V25.6077H70.7857V24.1662C70.7857 23.7044 71.0203 23.3233 71.5138 23.3233C71.8974 23.3233 72.1124 23.5603 72.1124 23.9732V25.6077H72.4667V23.8608C72.4667 23.2915 72.1076 23.0081 71.592 23.0081C71.0545 23.0081 70.8713 23.3135 70.8053 23.5261H70.7857V23.0496H70.4339ZM74.3593 25.6493C73.685 25.6493 73.294 25.2119 73.294 24.5303V24.1344C73.294 23.4405 73.724 23.0081 74.3275 23.0081C74.931 23.0081 75.3611 23.4405 75.3611 24.1344V24.4203H73.6483V24.5547C73.6483 25.0018 73.8951 25.3365 74.3569 25.3365C74.694 25.3365 74.9042 25.168 74.9506 24.9994H75.3244C75.2853 25.2632 74.9823 25.6493 74.3593 25.6493ZM75.0068 24.1027V24.1442H73.6483V24.1027C73.6483 23.6262 73.9195 23.3233 74.3275 23.3233C74.7356 23.3233 75.0068 23.6262 75.0068 24.1027ZM77.2624 24.5474V24.1027C77.2624 23.4332 77.6656 23.0081 78.3033 23.0081C78.9336 23.0081 79.2488 23.4039 79.261 23.7606H78.9092C78.8774 23.5945 78.7406 23.3306 78.3081 23.3306C77.8561 23.3306 77.6143 23.636 77.6143 24.1222V24.5474C77.6143 25.0287 77.8781 25.3268 78.3106 25.3268C78.7235 25.3268 78.8774 25.1313 78.9263 24.931H79.2781C79.261 25.273 78.9703 25.6493 78.3033 25.6493C77.6631 25.6493 77.2624 25.229 77.2624 24.5474ZM80.081 22.0967V25.6077H80.4328V24.1662C80.4328 23.702 80.6772 23.3233 81.1561 23.3233C81.5397 23.3233 81.7693 23.5651 81.7693 23.9781V25.6077H82.1236V23.8657C82.1236 23.2939 81.7547 23.0081 81.2587 23.0081C80.7212 23.0081 80.5061 23.3379 80.4524 23.5261H80.4328V22.0967H80.081ZM83.7621 25.6493C83.2661 25.6493 82.9265 25.339 82.9265 24.8674C82.9265 24.4276 83.2343 24.1247 83.8183 24.1247H84.5171V23.8486C84.5171 23.487 84.2874 23.3233 83.9307 23.3233C83.5715 23.3233 83.4249 23.4699 83.3712 23.6507H83.0266C83.0657 23.2353 83.4102 23.0081 83.9478 23.0081C84.4584 23.0081 84.8738 23.2378 84.8738 23.8412V25.6077H84.5317V25.251H84.5146C84.3949 25.4538 84.1579 25.6493 83.7621 25.6493ZM84.5171 24.7306C84.5171 25.0775 84.2263 25.3365 83.8476 25.3365C83.552 25.3365 83.293 25.1826 83.293 24.8601C83.293 24.6109 83.4469 24.4203 83.8256 24.4203H84.5171V24.7306ZM83.249 22.6245L83.8549 21.9232H84.0846L84.6881 22.6245H84.3753L83.9746 22.1505H83.9649L83.5617 22.6245H83.249ZM85.1474 21.3295L84.561 22.1774H84.8396L85.5115 21.3295H85.1474ZM85.9601 23.0496V22.4095H86.3119V23.0496H86.913V23.3452H86.3119V24.9309C86.3119 25.2461 86.4145 25.3292 86.7444 25.3292C86.8054 25.3292 86.9105 25.3219 86.9545 25.317V25.6126C86.9154 25.6199 86.7395 25.6322 86.6588 25.6322C86.0749 25.6322 85.9601 25.4049 85.9601 24.9138V23.3452H85.552V23.0496H85.9601ZM88.9365 22.0967V25.6077H89.2908V22.0967H88.9365ZM91.9066 25.1704C91.8333 25.3854 91.5889 25.6493 91.132 25.6493C90.6238 25.6493 90.2525 25.4221 90.2525 24.8308V23.0496H90.6067V24.7428C90.6067 25.1802 90.8706 25.3414 91.2102 25.3414C91.628 25.3414 91.9261 25.0262 91.9261 24.6769V23.0496H92.2535C92.5174 23.0496 92.5956 22.8908 92.5956 22.6611V22.3582H92.9181V22.6562C92.9181 23.035 92.7373 23.3062 92.3244 23.3062H92.2804V25.6077H91.9261V25.1704H91.9066ZM93.2885 24.5303C93.2885 25.2535 93.7454 25.6493 94.3684 25.6493C94.9793 25.6493 95.4459 25.2461 95.4459 24.5303V24.1271C95.4459 23.807 95.3091 23.5163 95.1772 23.3697V23.3501C95.5534 23.3453 95.6951 23.0936 95.6951 22.6953V22.3582H95.3726V22.7247C95.3726 22.9665 95.2773 23.1156 95.0306 23.1156C94.8922 23.1156 94.795 23.0886 94.6979 23.0617C94.6013 23.0348 94.505 23.0081 94.3684 23.0081C93.7527 23.0081 93.2885 23.4332 93.2885 24.1271V24.5303ZM94.3709 23.3208C93.9335 23.3208 93.6403 23.6531 93.6403 24.1662V24.4911C93.6403 25.014 93.9189 25.3341 94.3709 25.3341C94.818 25.3341 95.0916 25.0165 95.0916 24.4911V24.1662C95.0916 23.6531 94.8058 23.3208 94.3709 23.3208ZM94.366 25.9962C94.2243 25.9962 94.1241 26.0915 94.1241 26.2308C94.1241 26.3701 94.2243 26.4605 94.366 26.4605C94.5077 26.4605 94.6079 26.3701 94.6079 26.2308C94.6079 26.0915 94.5077 25.9962 94.366 25.9962ZM96.2781 25.6077V23.0496H96.6299V23.5261H96.6495C96.7155 23.3135 96.8987 23.0081 97.4362 23.0081C97.9518 23.0081 98.3109 23.2915 98.3109 23.8608V25.6077H97.9567V23.9732C97.9567 23.5603 97.7416 23.3233 97.3581 23.3233C96.8645 23.3233 96.6299 23.7044 96.6299 24.1662V25.6077H96.2781ZM100.875 25.5442C100.875 25.9669 100.634 26.2235 100.155 26.2235C99.7808 26.2235 99.5634 26.0427 99.5316 25.8521H99.1627C99.1993 26.2088 99.5121 26.5362 100.14 26.5362C100.797 26.5362 101.23 26.2112 101.23 25.532V23.0496H100.893V23.4503H100.878C100.795 23.25 100.524 23.0081 100.118 23.0081C99.5585 23.0081 99.104 23.4063 99.104 24.0734V24.496C99.104 25.1557 99.5536 25.5564 100.12 25.5564C100.504 25.5564 100.763 25.3439 100.856 25.1337H100.875V25.5442ZM100.184 23.3233C99.7466 23.3233 99.4583 23.6507 99.4583 24.1564V24.413C99.4583 24.9114 99.7637 25.2413 100.189 25.2413C100.636 25.2413 100.875 24.8723 100.875 24.4887V24.088C100.875 23.6898 100.619 23.3233 100.184 23.3233ZM103.226 24.1027V24.5474C103.226 25.229 103.627 25.6493 104.267 25.6493C104.934 25.6493 105.225 25.273 105.242 24.931H104.89C104.841 25.1313 104.687 25.3268 104.275 25.3268C103.842 25.3268 103.578 25.0287 103.578 24.5474V24.1222C103.578 23.636 103.82 23.3306 104.272 23.3306C104.705 23.3306 104.841 23.5945 104.873 23.7606H105.225C105.213 23.4039 104.898 23.0081 104.267 23.0081C103.63 23.0081 103.226 23.4332 103.226 24.1027ZM106.722 25.6493C106.226 25.6493 105.886 25.339 105.886 24.8674C105.886 24.4276 106.194 24.1247 106.778 24.1247H107.477V23.8486C107.477 23.487 107.247 23.3233 106.89 23.3233C106.531 23.3233 106.385 23.4699 106.331 23.6507H105.986C106.025 23.2353 106.37 23.0081 106.907 23.0081C107.418 23.0081 107.833 23.2378 107.833 23.8412V25.6077H107.491V25.251H107.474C107.355 25.4538 107.118 25.6493 106.722 25.6493ZM107.477 24.7306C107.477 25.0775 107.186 25.3365 106.807 25.3365C106.512 25.3365 106.253 25.1826 106.253 24.8601C106.253 24.6109 106.407 24.4203 106.785 24.4203H107.477V24.7306ZM109.743 23.0081C110.352 23.0081 110.821 23.4112 110.821 24.1271V24.5303C110.821 25.2461 110.354 25.6493 109.743 25.6493C109.12 25.6493 108.663 25.2535 108.663 24.5303V24.1271C108.663 23.4332 109.127 23.0081 109.743 23.0081ZM109.015 24.1686C109.015 23.6556 109.308 23.3233 109.746 23.3233C110.18 23.3233 110.466 23.6556 110.466 24.1686V24.4936C110.466 25.0189 110.193 25.3365 109.746 25.3365C109.294 25.3365 109.015 25.0165 109.015 24.4936V24.1686Z" fill="#0A5C8F"/>
</svg>
