<svg width="120" height="31" viewBox="0 0 120 31" fill="none" xmlns="http://www.w3.org/2000/svg">
<path d="M102.776 8.99C102.62 8.37 102.372 7.843 101.969 7.378C101.441 6.758 100.727 6.355 99.8585 6.138C99.0517 5.921 97.8414 5.828 96.1967 5.828C94.3969 5.828 93.2487 6.045 92.4108 6.355C92.0384 6.479 91.635 6.789 91.3557 7.037V6.448H89.0283V18.6H91.3557V10.85C91.3557 8.835 93.4039 8.029 95.483 8.029H96.5071C98.5552 8.029 100.634 8.835 100.634 10.85V18.569H102.931V11.935C102.962 10.447 102.9 9.517 102.776 8.99Z" fill="#E30613"/>
<path d="M63.52 5.766H65.8474C65.8784 4.526 65.9094 3.348 66.0646 2.79C66.1577 2.263 66.406 1.798 66.7783 1.457C67.1818 0.961 67.7403 0.62 68.4851 0.372C69.1368 0.186 70.347 0.031 71.8986 0H74.0709L71.9607 2.046C71.8986 2.046 71.1539 2.046 71.0608 2.046C67.9576 2.046 68.1748 4.03 68.1748 5.766H73.6054L71.4021 7.998H68.1748V18.538H65.8163V7.998H63.52V5.766Z" fill="#E30613"/>
<path d="M61.1926 1.76697V4.15397H63.52V1.76697H61.1926Z" fill="#E30613"/>
<path d="M66.406 23.095C66.5922 22.785 67.0266 22.63 67.7093 22.599C68.0507 22.599 68.3299 22.63 68.5472 22.723C68.7644 22.816 68.9196 22.94 68.9816 23.095C69.1988 22.785 69.6643 22.63 70.3781 22.599C70.6574 22.599 70.9056 22.63 71.0918 22.661C71.278 22.723 71.4332 22.785 71.5262 22.878C71.6193 22.971 71.6814 23.064 71.7435 23.188C71.7745 23.312 71.8055 23.436 71.8055 23.591V25.513H71.1849V23.653C71.1849 23.467 71.1539 23.312 71.1228 23.219C71.0608 23.126 70.9987 23.033 70.8746 23.002C70.7504 22.971 70.5643 22.94 70.347 22.94C70.0988 22.94 69.8815 22.971 69.7264 23.002C69.5402 23.033 69.4161 23.095 69.2919 23.219C69.1678 23.343 69.1368 23.498 69.1368 23.715V25.544H68.4851V23.622C68.4851 23.436 68.4541 23.312 68.423 23.219C68.392 23.126 68.2989 23.064 68.1748 23.033C68.0507 23.002 67.8645 22.971 67.5852 22.971C67.2128 22.971 66.9335 23.033 66.7163 23.157C66.4991 23.281 66.406 23.498 66.406 23.839V25.575H65.7853V22.63H66.406V23.095Z" fill="#0064B0"/>
<path d="M75.2811 22.63C75.5294 22.661 75.7156 22.723 75.8397 22.847C75.9949 22.971 76.119 23.126 76.15 23.343C76.1811 23.56 76.2121 23.808 76.2121 24.118C76.2121 24.428 76.1811 24.676 76.15 24.862C76.119 25.048 75.9949 25.234 75.8087 25.358C75.6535 25.451 75.4673 25.513 75.2191 25.513C74.9708 25.544 74.6915 25.544 74.3502 25.544C74.0088 25.544 73.6985 25.513 73.4813 25.482C73.233 25.451 73.0779 25.358 72.9227 25.203C72.7365 25.017 72.6434 24.676 72.6434 24.18C72.6434 23.87 72.6744 23.591 72.6744 23.405C72.7055 23.219 72.7675 23.033 72.9227 22.909C73.0468 22.785 73.233 22.692 73.4502 22.661C73.6675 22.63 73.9467 22.599 74.2881 22.599C74.7226 22.599 75.0329 22.63 75.2811 22.63ZM74.2571 22.94C73.8847 22.94 73.6364 23.002 73.5123 23.095C73.4192 23.157 73.3571 23.25 73.3571 23.374C73.3261 23.498 73.3261 23.684 73.2951 23.901C73.2951 23.932 73.2951 23.963 73.2951 24.025C73.2951 24.087 73.2951 24.149 73.2951 24.18C73.2951 24.397 73.3261 24.552 73.3261 24.676C73.3571 24.8 73.3882 24.893 73.4502 24.955C73.5433 25.048 73.6675 25.11 73.8226 25.141C73.9778 25.172 74.195 25.172 74.4433 25.172C74.6605 25.172 74.8467 25.172 75.0018 25.141C75.157 25.11 75.2811 25.079 75.3432 25.017C75.4673 24.893 75.5604 24.645 75.5604 24.242V24.025C75.5604 23.777 75.5604 23.591 75.5294 23.436C75.4984 23.281 75.4363 23.157 75.3742 23.095C75.2811 23.033 75.157 22.971 75.0018 22.94C74.8467 22.909 74.6295 22.909 74.4122 22.909H74.2571V22.94Z" fill="#0064B0"/>
<path d="M74.7846 25.823V26.288H74.164V25.823H74.7846Z" fill="#0064B0"/>
<path d="M77.7016 21.669V22.165H77.081V21.669H77.7016ZM77.7016 22.63V25.544H77.081V22.63H77.7016Z" fill="#0064B0"/>
<path d="M80.8669 21.39V25.544H80.2773V21.39H80.8669Z" fill="#0064B0"/>
<path d="M84.5597 25.172C84.4666 25.327 84.2804 25.451 84.0632 25.513C83.846 25.575 83.5667 25.606 83.2564 25.606C82.7909 25.606 82.4185 25.513 82.2013 25.358C81.9841 25.203 81.8599 24.955 81.8599 24.614V22.63H82.4806V24.552C82.4806 24.707 82.4806 24.831 82.5116 24.924C82.5426 24.986 82.5737 25.048 82.6357 25.11C82.7599 25.203 83.0081 25.265 83.3805 25.234C83.5357 25.234 83.6598 25.234 83.7839 25.203C83.877 25.203 84.0011 25.172 84.0942 25.141C84.1873 25.11 84.2804 25.079 84.3735 25.017C84.4977 24.924 84.5907 24.707 84.5907 24.428V22.63H85.2114V25.544H84.5907L84.5597 25.172Z" fill="#0064B0"/>
<path d="M83.877 21.483L84.2494 21.576L83.5667 22.537L83.2874 22.444L83.877 21.483Z" fill="#0064B0"/>
<path d="M88.8732 23.529C88.8732 23.436 88.8421 23.343 88.8421 23.281C88.8111 23.188 88.7801 23.126 88.687 23.095C88.5629 23.033 88.2836 22.971 87.8801 22.971H87.725C87.5078 22.971 87.3526 22.971 87.2285 23.002C87.1043 23.033 87.0112 23.064 86.9182 23.157C86.8251 23.219 86.794 23.312 86.763 23.405C86.732 23.529 86.7009 23.653 86.7009 23.839C86.7009 23.901 86.7009 23.963 86.7009 24.056C86.7009 24.211 86.7009 24.304 86.7009 24.397C86.7009 24.583 86.732 24.707 86.763 24.831C86.794 24.924 86.8561 25.017 86.9492 25.079C87.1043 25.172 87.4147 25.234 87.8801 25.234C88.1594 25.234 88.3456 25.234 88.4698 25.203C88.5939 25.172 88.687 25.141 88.7801 25.11C88.9042 25.048 88.9352 24.862 88.9352 24.614V24.49H89.5248V24.614C89.5248 24.955 89.4318 25.172 89.1835 25.327C88.9352 25.482 88.4698 25.575 87.7871 25.575C87.5388 25.575 87.3526 25.575 87.1974 25.544C87.0423 25.544 86.9182 25.513 86.794 25.482C86.6699 25.451 86.5458 25.389 86.4527 25.327C86.2975 25.203 86.1734 25.079 86.1424 24.924C86.1113 24.769 86.0803 24.521 86.0803 24.149C86.0803 23.901 86.0803 23.715 86.1113 23.56C86.1113 23.405 86.1424 23.281 86.2044 23.188C86.2355 23.095 86.3285 23.002 86.4216 22.94C86.5458 22.847 86.6699 22.754 86.8251 22.723C86.9802 22.692 87.1664 22.661 87.3216 22.63C87.4767 22.63 87.6629 22.599 87.9112 22.599C88.1905 22.599 88.4077 22.63 88.6249 22.661C88.8421 22.692 88.9973 22.723 89.0904 22.785C89.2456 22.878 89.3697 22.971 89.4007 23.126C89.4628 23.25 89.4628 23.405 89.4628 23.591H88.8421V23.529H88.8732Z" fill="#0064B0"/>
<path d="M93.3728 24.242H91.4178V23.808H93.3728V24.242Z" fill="#0064B0"/>
<path d="M96.0416 23.095C96.2278 22.785 96.6622 22.63 97.3449 22.599C97.6863 22.599 97.9656 22.63 98.1828 22.723C98.4 22.816 98.5552 22.94 98.6172 23.095C98.8345 22.785 99.2999 22.63 100.014 22.599C100.293 22.599 100.541 22.63 100.727 22.661C100.914 22.723 101.069 22.785 101.162 22.878C101.255 22.971 101.317 23.064 101.379 23.188C101.41 23.312 101.441 23.436 101.441 23.591V25.513H100.821V23.653C100.821 23.467 100.789 23.312 100.758 23.219C100.696 23.126 100.634 23.033 100.51 23.002C100.386 22.971 100.2 22.94 99.9826 22.94C99.7344 22.94 99.5172 22.971 99.362 23.002C99.1758 23.033 99.0517 23.095 98.9276 23.219C98.8034 23.343 98.7724 23.498 98.7724 23.715V25.544H98.1828V23.622C98.1828 23.436 98.1518 23.312 98.1207 23.219C98.0897 23.126 97.9966 23.064 97.8725 23.033C97.7483 23.002 97.5621 22.971 97.2829 22.971C96.9105 22.971 96.6312 23.033 96.414 23.157C96.1967 23.281 96.1036 23.498 96.1036 23.839V25.575H95.483V22.63H96.1036L96.0416 23.095Z" fill="#0064B0"/>
<path d="M104.886 22.63C105.134 22.661 105.32 22.723 105.444 22.847C105.599 22.971 105.724 23.126 105.755 23.343C105.786 23.56 105.817 23.808 105.817 24.118C105.817 24.428 105.786 24.676 105.755 24.862C105.724 25.048 105.599 25.234 105.413 25.358C105.258 25.451 105.072 25.513 104.824 25.513C104.575 25.544 104.296 25.544 103.955 25.544C103.613 25.544 103.303 25.513 103.086 25.482C102.838 25.451 102.682 25.358 102.527 25.203C102.341 25.017 102.248 24.676 102.248 24.18C102.248 23.87 102.279 23.591 102.279 23.405C102.31 23.219 102.372 23.033 102.527 22.909C102.651 22.785 102.838 22.692 103.055 22.661C103.272 22.63 103.551 22.599 103.893 22.599C104.327 22.599 104.668 22.63 104.886 22.63ZM103.862 22.94C103.489 22.94 103.241 23.002 103.117 23.095C103.024 23.157 102.962 23.25 102.962 23.374C102.931 23.498 102.931 23.684 102.9 23.901C102.9 23.932 102.9 23.963 102.9 24.025C102.9 24.087 102.9 24.149 102.9 24.18C102.9 24.397 102.931 24.552 102.931 24.676C102.962 24.8 102.993 24.893 103.055 24.955C103.148 25.048 103.272 25.11 103.427 25.141C103.582 25.172 103.8 25.172 104.048 25.172C104.265 25.172 104.451 25.172 104.606 25.141C104.762 25.11 104.886 25.079 104.948 25.017C105.072 24.893 105.165 24.645 105.165 24.242V24.025C105.165 23.777 105.165 23.591 105.134 23.436C105.103 23.281 105.041 23.157 104.979 23.095C104.886 23.033 104.762 22.971 104.606 22.94C104.451 22.909 104.234 22.909 104.017 22.909H103.862V22.94Z" fill="#0064B0"/>
<path d="M104.389 25.823V26.288H103.769V25.823H104.389Z" fill="#0064B0"/>
<path d="M107.337 21.669V22.165H106.717V21.669H107.337ZM107.337 22.63V25.544H106.717V22.63H107.337Z" fill="#0064B0"/>
<path d="M110.503 23.002C110.565 22.909 110.658 22.816 110.782 22.754C110.906 22.692 111.03 22.661 111.185 22.63C111.34 22.599 111.496 22.599 111.682 22.599C112.085 22.599 112.395 22.63 112.613 22.692C112.83 22.754 113.016 22.878 113.109 23.002C113.202 23.126 113.264 23.312 113.264 23.56V25.544H112.675V23.56C112.675 23.374 112.644 23.25 112.582 23.188C112.52 23.095 112.427 23.033 112.271 23.002C112.147 22.971 111.93 22.94 111.713 22.94C111.465 22.94 111.278 22.94 111.154 22.971C110.999 23.002 110.875 23.033 110.782 23.126C110.596 23.25 110.534 23.467 110.534 23.808V25.544H109.944V22.63H110.534L110.503 23.002Z" fill="#0064B0"/>
<path d="M115.871 22.599C116.243 22.599 116.585 22.63 116.802 22.63C117.05 22.661 117.236 22.723 117.361 22.847C117.516 22.971 117.64 23.126 117.671 23.343C117.981 23.343 117.919 22.909 117.919 22.816H118.385C118.323 23.467 118.012 23.653 117.702 23.653C117.702 23.808 117.702 23.932 117.702 24.118C117.702 24.428 117.671 24.676 117.64 24.862C117.609 25.048 117.485 25.234 117.299 25.358C117.143 25.451 116.957 25.513 116.709 25.513C116.461 25.544 116.181 25.544 115.84 25.544C115.499 25.544 115.188 25.513 114.971 25.482C114.723 25.451 114.568 25.358 114.413 25.203C114.226 25.017 114.133 24.676 114.133 24.18C114.133 23.87 114.133 23.591 114.164 23.405C114.195 23.219 114.257 23.033 114.413 22.909C114.537 22.785 114.723 22.692 114.94 22.661C115.219 22.63 115.499 22.599 115.871 22.599ZM115.747 22.94C115.375 22.94 115.126 23.002 115.002 23.095C114.909 23.157 114.847 23.25 114.847 23.374C114.816 23.498 114.816 23.684 114.785 23.901C114.785 23.932 114.785 23.963 114.785 24.025C114.785 24.087 114.785 24.149 114.785 24.18C114.785 24.397 114.816 24.552 114.816 24.676C114.847 24.8 114.878 24.893 114.94 24.955C115.033 25.048 115.157 25.11 115.312 25.141C115.468 25.172 115.685 25.172 115.933 25.172C116.15 25.172 116.337 25.172 116.492 25.141C116.647 25.11 116.771 25.079 116.833 25.017C116.957 24.893 117.05 24.645 117.05 24.242V24.025C117.05 23.777 117.05 23.591 117.019 23.436C116.988 23.281 116.926 23.157 116.864 23.095C116.771 23.033 116.647 22.971 116.492 22.94C116.337 22.909 116.119 22.909 115.902 22.909H115.747V22.94Z" fill="#0064B0"/>
<path d="M119.223 21.669V22.165H118.602V21.669H119.223ZM119.223 22.63V25.544H118.602V22.63H119.223Z" fill="#0064B0"/>
<path d="M43.256 12.214C43.256 13.671 43.1009 14.849 42.7595 15.748C42.4182 16.678 41.27 18.755 35.6532 18.755C30.0364 18.755 28.8882 16.678 28.5468 15.748C28.2055 14.849 28.0503 13.671 28.0503 12.214C28.0503 10.757 28.2055 9.57897 28.5468 8.67997C28.8882 7.74997 30.0364 5.67297 35.6532 5.67297C41.27 5.67297 42.4182 7.74997 42.7595 8.67997C43.1009 9.57897 43.256 10.757 43.256 12.214ZM40.339 9.42397C40.1218 8.89697 39.7494 8.55597 39.1598 8.36997C38.5702 8.18397 37.5151 8.05997 35.6532 8.02897C33.8223 8.05997 32.7672 8.15297 32.1466 8.36997C31.5569 8.55597 31.1846 8.89697 30.9673 9.42397C30.7811 9.82697 30.595 10.819 30.595 12.214C30.595 13.609 30.7811 14.601 30.9673 15.004C31.1846 15.531 31.5569 15.872 32.1466 16.058C32.7362 16.244 33.7913 16.368 35.6532 16.399C37.4841 16.368 38.5392 16.275 39.1598 16.058C39.7494 15.872 40.1218 15.531 40.339 15.004C40.5252 14.601 40.7114 13.609 40.7114 12.214C40.7114 10.819 40.4942 9.82697 40.339 9.42397Z" fill="#0064B0"/>
<path d="M87.3526 12.214C87.3526 13.671 87.1974 14.849 86.8561 15.748C86.5147 16.678 85.3665 18.755 79.7497 18.755C74.1329 18.755 72.9848 16.678 72.6434 15.748C72.302 14.849 72.1469 13.671 72.1469 12.214C72.1469 10.757 72.302 9.57897 72.6434 8.67997C72.9848 7.74997 74.1329 5.67297 79.7497 5.67297C85.3665 5.67297 86.5147 7.74997 86.8561 8.67997C87.1974 9.57897 87.3526 10.757 87.3526 12.214ZM84.4045 9.42397C84.1873 8.89697 83.8149 8.55597 83.2253 8.36997C82.6357 8.18397 81.5806 8.05997 79.7187 8.02897C77.8878 8.05997 76.8327 8.15297 76.2121 8.36997C75.6225 8.55597 75.2501 8.89697 75.0329 9.42397C74.8467 9.82697 74.6605 10.819 74.6605 12.214C74.6605 13.609 74.8467 14.601 75.0329 15.004C75.2501 15.531 75.6225 15.872 76.2121 16.058C76.8017 16.244 77.8568 16.368 79.7187 16.399C81.5496 16.368 82.6047 16.275 83.2253 16.058C83.8149 15.872 84.1873 15.531 84.4045 15.004C84.5907 14.601 84.7769 13.609 84.7769 12.214C84.7769 10.819 84.5907 9.82697 84.4045 9.42397Z" fill="#E30613"/>
<path d="M26.1884 8.959C26.0332 8.339 25.785 7.812 25.3816 7.347C24.823 6.727 24.1403 6.324 23.2404 6.107C22.4335 5.89 21.2543 5.797 19.5786 5.797C17.7787 5.797 16.5374 5.952 15.6996 6.262C15.0169 6.51 14.4583 6.975 14.0238 7.595C13.5273 6.944 12.9377 6.479 12.1619 6.231C11.293 5.952 9.71038 5.797 7.69329 5.797C6.17272 5.797 5.14866 5.89 4.52802 6.138C4.06254 6.324 3.59706 6.603 3.16261 7.037C3.16261 6.665 3.16261 6.417 3.16261 6.417H0.835205V18.569H3.16261V10.85C3.16261 8.835 5.21073 8.029 7.28987 8.029H8.31393C10.3931 8.029 12.4412 8.835 12.4412 10.85V18.569H14.7686V10.85C14.7686 8.835 16.7857 8.029 18.8648 8.029H19.8889C21.968 8.029 24.0472 8.835 24.0472 10.85V18.569H26.3746V11.935C26.3746 10.416 26.3125 9.517 26.1884 8.959Z" fill="#0064B0"/>
<path d="M118.447 13.082H119.626C119.657 12.803 119.657 12.493 119.657 12.183C119.657 10.726 119.502 9.54797 119.16 8.64897C118.819 7.71897 117.671 5.64197 112.054 5.64197C106.437 5.64197 105.289 7.71897 104.948 8.64897C104.606 9.54797 104.451 10.726 104.451 12.183C104.451 13.64 104.606 14.818 104.948 15.717C105.289 16.647 106.437 18.724 112.054 18.724C117.671 18.724 118.819 16.647 119.16 15.717C119.191 15.624 119.223 15.562 119.254 15.469H116.461C116.243 15.748 115.964 15.934 115.561 16.058C114.971 16.244 113.916 16.368 112.054 16.399C110.223 16.368 109.137 16.275 108.547 16.058C107.958 15.872 107.585 15.531 107.368 15.004C107.244 14.694 107.089 14.043 107.027 13.113L118.447 13.082ZM108.547 8.33897C109.137 8.15297 110.192 8.02897 112.054 7.99797C113.885 8.02897 114.94 8.12197 115.561 8.33897C116.15 8.52497 116.523 8.86597 116.74 9.39297C116.864 9.64097 116.988 10.168 117.05 10.881H107.089C107.151 10.168 107.275 9.64097 107.399 9.39297C107.617 8.89697 107.989 8.55597 108.547 8.33897Z" fill="#E30613"/>
<path d="M61.1926 5.76599V18.569H63.52V5.76599H61.1926Z" fill="#0064B0"/>
<path d="M59.0514 8.68C58.71 7.75 57.5618 5.673 51.945 5.673C49.8038 5.673 48.3143 5.983 47.2592 6.417V0H44.9318V18.6H47.2592V18.011C48.3143 18.445 49.8038 18.755 51.945 18.755C57.5618 18.755 58.71 16.678 59.0514 15.748C59.3927 14.849 59.5479 13.671 59.5479 12.214C59.5789 10.757 59.3927 9.579 59.0514 8.68ZM56.6309 15.004C56.4136 15.531 56.0412 15.872 55.4516 16.058C54.862 16.244 53.8069 16.368 51.945 16.399C50.1141 16.368 49.3694 16.275 48.7797 16.058C48.1901 15.872 47.8177 15.531 47.6005 15.004C47.4764 14.694 47.3212 14.012 47.2592 13.051V11.408C47.3212 10.447 47.4764 9.765 47.6005 9.455C47.8177 8.928 48.1901 8.587 48.7797 8.401C49.3694 8.215 50.1141 8.091 51.945 8.06C53.7759 8.091 54.831 8.184 55.4516 8.401C56.0412 8.587 56.4136 8.928 56.6309 9.455C56.817 9.858 57.0032 10.85 57.0032 12.245C57.0032 13.609 56.786 14.601 56.6309 15.004Z" fill="#0064B0"/>
</svg>
